<svg xmlns="http://www.w3.org/2000/svg" xmlns:xlink="http://www.w3.org/1999/xlink" width="1038.966" height="460.357" viewBox="0 0 779.225 345.267"><defs><clipPath id="a"><path d="M0 0h779.227v345.266H0zm0 0"/></clipPath><clipPath id="b"><path d="M261 71.633h3V103h-3zm0 0"/></clipPath><clipPath id="c"><path d="M232 71.633h3V103h-3zm0 0"/></clipPath><clipPath id="d"><path d="M202.547 72h90.719v2h-90.72zm0 0"/></clipPath><clipPath id="e"><path d="M202.547 100h90.719v3h-90.72zm0 0"/></clipPath><clipPath id="f"><path d="M290 71.633h3V103h-3zm0 0"/></clipPath><clipPath id="g"><path d="M203 71.633h2V103h-2zm0 0"/></clipPath><clipPath id="h"><path d="M261 130.367h3V162h-3zm0 0"/></clipPath><clipPath id="i"><path d="M232 130.367h3V162h-3zm0 0"/></clipPath><clipPath id="j"><path d="M261 131h32.266v2H261zm0 0"/></clipPath><clipPath id="k"><path d="M202.547 131H264v2h-61.453zm0 0"/></clipPath><clipPath id="l"><path d="M261 159h32.266v2H261zm0 0"/></clipPath><clipPath id="m"><path d="M202.547 159H264v2h-61.453zm0 0"/></clipPath><clipPath id="n"><path d="M290 130.367h3V162h-3zm0 0"/></clipPath><clipPath id="o"><path d="M203 130.367h2V162h-2zm0 0"/></clipPath><clipPath id="p"><path d="M261 189.102h3v31.765h-3zm0 0"/></clipPath><clipPath id="q"><path d="M232 189.102h3v31.765h-3zm0 0"/></clipPath><clipPath id="r"><path d="M261 189.102h32.266V192H261zm0 0"/></clipPath><clipPath id="s"><path d="M232 189.102h32V192h-32zm0 0"/></clipPath><clipPath id="t"><path d="M202.547 189.102H235V192h-32.453zm0 0"/></clipPath><clipPath id="u"><path d="M261 217h32.266v3H261zm0 0"/></clipPath><clipPath id="v"><path d="M202.547 217H235v3h-32.453zm0 0"/></clipPath><clipPath id="w"><path d="M290 189.102h3v31.765h-3zm0 0"/></clipPath><clipPath id="x"><path d="M203 189.102h2v31.765h-2zm0 0"/></clipPath><clipPath id="y"><path d="M261 247.836h3V279h-3zm0 0"/></clipPath><clipPath id="z"><path d="M232 247.836h3V279h-3zm0 0"/></clipPath><clipPath id="A"><path d="M261 248h32.266v3H261zm0 0"/></clipPath><clipPath id="B"><path d="M202.547 248H235v3h-32.453zm0 0"/></clipPath><clipPath id="C"><path d="M261 276h32.266v3H261zm0 0"/></clipPath><clipPath id="D"><path d="M202.547 276H235v3h-32.453zm0 0"/></clipPath><clipPath id="E"><path d="M290 247.836h3V279h-3zm0 0"/></clipPath><clipPath id="F"><path d="M203 247.836h2V279h-2zm0 0"/></clipPath><clipPath id="P"><path d="M557 246.063h2v31.765h-2zm0 0"/></clipPath><clipPath id="Q"><path d="M586 246.063h3v31.765h-3zm0 0"/></clipPath><clipPath id="R"><path d="M527.445 275h90.723v2.828h-90.723zm0 0"/></clipPath><clipPath id="S"><path d="M527.445 247h90.723v2h-90.723zm0 0"/></clipPath><clipPath id="T"><path d="M528 246.063h2v31.765h-2zm0 0"/></clipPath><clipPath id="U"><path d="M615 246.063h3v31.765h-3zm0 0"/></clipPath><clipPath id="V"><path d="M557 187.328h2v31.766h-2zm0 0"/></clipPath><clipPath id="W"><path d="M586 187.328h3v31.766h-3zm0 0"/></clipPath><clipPath id="X"><path d="M527.445 216H559v3h-31.555zm0 0"/></clipPath><clipPath id="Y"><path d="M557 216h61.168v3H557zm0 0"/></clipPath><clipPath id="Z"><path d="M527.445 188H559v3h-31.555zm0 0"/></clipPath><clipPath id="aa"><path d="M557 188h61.168v3H557zm0 0"/></clipPath><clipPath id="ab"><path d="M528 187.328h2v31.766h-2zm0 0"/></clipPath><clipPath id="ac"><path d="M615 187.328h3v31.766h-3zm0 0"/></clipPath><clipPath id="ad"><path d="M557 129h2v31.36h-2zm0 0"/></clipPath><clipPath id="ae"><path d="M586 129h3v31.36h-3zm0 0"/></clipPath><clipPath id="af"><path d="M527.445 158H559v2h-31.555zm0 0"/></clipPath><clipPath id="ag"><path d="M586 158h32.168v2H586zm0 0"/></clipPath><clipPath id="ah"><path d="M527.445 129H559v3h-31.555zm0 0"/></clipPath><clipPath id="ai"><path d="M586 129h32.168v3H586zm0 0"/></clipPath><clipPath id="aj"><path d="M528 129h2v31.36h-2zm0 0"/></clipPath><clipPath id="ak"><path d="M615 129h3v31.36h-3zm0 0"/></clipPath><clipPath id="al"><path d="M557 70h2v31.625h-2zm0 0"/></clipPath><clipPath id="am"><path d="M586 70h3v31.625h-3zm0 0"/></clipPath><clipPath id="an"><path d="M527.445 99H559v2h-31.555zm0 0"/></clipPath><clipPath id="ao"><path d="M586 99h32.168v2H586zm0 0"/></clipPath><clipPath id="ap"><path d="M527.445 71H559v2h-31.555zm0 0"/></clipPath><clipPath id="aq"><path d="M586 71h32.168v2H586zm0 0"/></clipPath><clipPath id="ar"><path d="M528 70h2v31.625h-2zm0 0"/></clipPath><clipPath id="as"><path d="M615 70h3v31.625h-3zm0 0"/></clipPath><clipPath id="at"><path d="M706 154.148h31v29.77h-31zm0 0"/></clipPath><clipPath id="au"><path d="M736 154.148h32v29.77h-32zm0 0"/></clipPath><clipPath id="av"><path d="M736 154.148h2v29.77h-2zm0 0"/></clipPath><clipPath id="aw"><path d="M705.46 154.148H708v29.77h-2.54zm0 0"/></clipPath><clipPath id="ax"><path d="M766 154.148h2.32v29.77H766zm0 0"/></clipPath><clipPath id="ay"><path d="M705.46 154.148h62.86V156h-62.86zm0 0"/></clipPath><clipPath id="az"><path d="M705.46 182h62.86v1.918h-62.86zm0 0"/></clipPath><clipPath id="aA"><path d="M735 265.742h2v29.77h-2zm0 0"/></clipPath><clipPath id="aB"><path d="M704.684 265.742H707v29.77h-2.316zm0 0"/></clipPath><clipPath id="aC"><path d="M765 265.742h2.547v29.77H765zm0 0"/></clipPath><clipPath id="aD"><path d="M704.684 265.742h62.863V268h-62.863zm0 0"/></clipPath><clipPath id="aE"><path d="M704.684 293h62.863v2.512h-62.863zm0 0"/></clipPath><clipPath id="aV"><path d="M769 19h10.227v11H769zm0 0"/></clipPath><clipPath id="bi"><path d="M122 248h2v31.602h-2zm0 0"/></clipPath><clipPath id="bj"><path d="M151 248h2v31.602h-2zm0 0"/></clipPath><clipPath id="bk"><path d="M92.238 277h90.723v2H92.238zm0 0"/></clipPath><clipPath id="bl"><path d="M92.238 249h90.723v2H92.238zm0 0"/></clipPath><clipPath id="bm"><path d="M93 248h2v31.602h-2zm0 0"/></clipPath><clipPath id="bn"><path d="M180 248h2.96v31.602H180zm0 0"/></clipPath><clipPath id="bo"><path d="M122 189.102h2v31.765h-2zm0 0"/></clipPath><clipPath id="bp"><path d="M151 189.102h2v31.765h-2zm0 0"/></clipPath><clipPath id="bq"><path d="M92.238 218H124v2.867H92.238zm0 0"/></clipPath><clipPath id="br"><path d="M122 218h60.96v2.867H122zm0 0"/></clipPath><clipPath id="bs"><path d="M92.238 190H124v3H92.238zm0 0"/></clipPath><clipPath id="bt"><path d="M122 190h60.96v3H122zm0 0"/></clipPath><clipPath id="bu"><path d="M93 189.102h2v31.765h-2zm0 0"/></clipPath><clipPath id="bv"><path d="M180 189.102h2.96v31.765H180zm0 0"/></clipPath><clipPath id="bw"><path d="M122 130.367h2v31.766h-2zm0 0"/></clipPath><clipPath id="bx"><path d="M151 130.367h2v31.766h-2zm0 0"/></clipPath><clipPath id="by"><path d="M92.238 159H124v3H92.238zm0 0"/></clipPath><clipPath id="bz"><path d="M151 159h31.96v3H151zm0 0"/></clipPath><clipPath id="bA"><path d="M92.238 131H124v3H92.238zm0 0"/></clipPath><clipPath id="bB"><path d="M151 131h31.96v3H151zm0 0"/></clipPath><clipPath id="bC"><path d="M93 130.367h2v31.766h-2zm0 0"/></clipPath><clipPath id="bD"><path d="M180 130.367h2.96v31.766H180zm0 0"/></clipPath><clipPath id="bE"><path d="M122 72h2v31.398h-2zm0 0"/></clipPath><clipPath id="bF"><path d="M151 72h2v31.398h-2zm0 0"/></clipPath><clipPath id="bG"><path d="M92.238 101H124v2H92.238zm0 0"/></clipPath><clipPath id="bH"><path d="M151 101h31.96v2H151zm0 0"/></clipPath><clipPath id="bI"><path d="M92.238 73H124v2H92.238zm0 0"/></clipPath><clipPath id="bJ"><path d="M151 73h31.96v2H151zm0 0"/></clipPath><clipPath id="bK"><path d="M93 72h2v31.398h-2zm0 0"/></clipPath><clipPath id="bL"><path d="M180 72h2.96v31.398H180zm0 0"/></clipPath><symbol overflow="visible" id="G"><path d="M5 0H.672v-.594a6.18 6.18 0 01.422-.047c.156-.007.285-.03.39-.062A.65.65 0 001.86-1a1.01 1.01 0 00.125-.531v-5.516c0-.195-.046-.375-.14-.531a1.089 1.089 0 00-.36-.406 1.87 1.87 0 00-.5-.188 3.77 3.77 0 00-.593-.094v-.593l3.156-.204.14.126v7.296c0 .22.036.399.11.532.082.136.21.242.39.312.133.055.266.094.391.125s.266.059.422.078zM3.86-12.594c0 .344-.118.649-.344.906-.22.262-.496.391-.829.391-.312 0-.585-.117-.812-.36a1.227 1.227 0 01-.344-.859 1.2 1.2 0 01.344-.859c.227-.25.5-.375.813-.375.343 0 .624.117.843.344.219.23.328.5.328.812zm0 0"/></symbol><symbol overflow="visible" id="H"><path d="M10.547 0h-4.39v-.594c.144-.02.3-.035.468-.047.164-.007.3-.03.406-.062A.734.734 0 007.406-1a1.01 1.01 0 00.125-.531v-4.594c0-.633-.152-1.125-.453-1.469a1.378 1.378 0 00-1.094-.515c-.324 0-.62.054-.89.156a2.976 2.976 0 00-.703.36c-.2.136-.356.288-.47.452a8.133 8.133 0 00-.265.375v5.157c0 .199.04.367.125.5a.867.867 0 00.39.312c.126.063.259.11.407.14.156.024.313.044.469.063V0H.657v-.594c.132-.02.273-.035.421-.047.156-.007.285-.03.39-.062A.734.734 0 001.845-1a1.01 1.01 0 00.125-.531v-5.516a1.14 1.14 0 00-.14-.562 1.185 1.185 0 00-.36-.438 1.259 1.259 0 00-.407-.156 3.882 3.882 0 00-.515-.063v-.593l2.984-.204.125.126v1.265h.047c.145-.144.328-.316.547-.516a4.2 4.2 0 01.625-.5 3.01 3.01 0 01.797-.359c.312-.101.66-.156 1.047-.156.851 0 1.488.273 1.906.812.414.532.625 1.246.625 2.141v4.656c0 .211.035.383.11.516.07.125.195.226.374.297.145.062.27.105.375.125.102.023.25.043.438.062zm0 0"/></symbol><symbol overflow="visible" id="I"><path d="M8.844-7.89c.351.43.629.921.828 1.484.195.554.297 1.187.297 1.906 0 .71-.121 1.36-.36 1.953a4.419 4.419 0 01-.937 1.485 4.46 4.46 0 01-1.36.968A3.8 3.8 0 015.75.234c-.543 0-.992-.062-1.344-.187a2.615 2.615 0 01-.828-.422H3.5v2.688c0 .218.04.398.125.546a.69.69 0 00.39.313c.145.062.352.113.626.156.27.05.492.082.671.094v.61H.298v-.61c.187-.012.367-.027.547-.047a3.26 3.26 0 00.469-.094.583.583 0 00.39-.312c.07-.156.11-.336.11-.531v-9.532c0-.176-.047-.347-.141-.515a1.23 1.23 0 00-.36-.422 1.154 1.154 0 00-.453-.156 3.974 3.974 0 00-.562-.079v-.593l3.062-.204.125.11v1.015l.063.016a4.04 4.04 0 011.172-.906c.468-.25.93-.375 1.39-.375.563 0 1.07.121 1.532.36.468.241.867.558 1.203.952zM7.359-1.454c.239-.375.414-.805.532-1.297a7.56 7.56 0 00.171-1.672 6.81 6.81 0 00-.14-1.36 3.986 3.986 0 00-.453-1.234 2.662 2.662 0 00-.813-.843c-.336-.22-.73-.329-1.187-.329-.461 0-.844.102-1.157.297-.312.2-.585.434-.812.704v5.296c.05.157.14.325.266.5.125.18.265.329.421.454.188.156.383.28.594.375.219.093.489.14.813.14.332 0 .656-.086.968-.266.32-.187.586-.44.797-.765zm0 0"/></symbol><symbol overflow="visible" id="J"><path d="M10.266-.156L7.344.03l-.14-.125V-1.22h-.048a21.37 21.37 0 01-.5.485 3.78 3.78 0 01-.625.468 4.36 4.36 0 01-.797.36c-.25.093-.609.14-1.078.14-.793 0-1.398-.257-1.812-.78-.418-.52-.625-1.274-.625-2.266v-4.282a1.11 1.11 0 00-.125-.547 1.145 1.145 0 00-.344-.39 1.282 1.282 0 00-.422-.156 3.882 3.882 0 00-.515-.063v-.594l3-.219.124.126v6.218c0 .649.145 1.137.438 1.469.29.324.64.484 1.047.484.332 0 .629-.05.89-.156.258-.101.477-.223.657-.36a3.21 3.21 0 00.437-.39c.125-.144.219-.281.282-.406v-5.078c0-.196-.043-.375-.125-.532a1.106 1.106 0 00-.36-.39c-.105-.07-.266-.113-.484-.125-.219-.02-.461-.035-.719-.047v-.594l3.25-.219.14.126v7.109a1.019 1.019 0 00.485.906.944.944 0 00.375.125c.156.024.328.04.516.047zm0 0"/></symbol><symbol overflow="visible" id="K"><path d="M6.188-.39c-.399.167-.774.304-1.125.406-.344.113-.774.171-1.282.171C3.031.188 2.5 0 2.187-.375c-.304-.375-.453-.91-.453-1.61v-6.062H.125v-.875h1.64v-2.781h1.657v2.781H6v.875H3.437v5c0 .375.016.695.047.953.032.25.098.469.204.656a.954.954 0 00.421.391c.196.094.457.14.782.14.156 0 .379-.007.671-.03.29-.032.5-.067.625-.11zm0 0"/></symbol><symbol overflow="visible" id="L"><path d="M6.563-4.39c.25.218.44.476.578.765.132.281.203.625.203 1.031 0 .836-.313 1.516-.938 2.047C5.79-.023 4.988.234 4 .234c-.523 0-1-.093-1.438-.28-.437-.188-.75-.36-.937-.516L1.437.03H.75L.656-3.094h.64c.04.242.141.524.298.844.156.313.347.594.578.844.238.273.52.496.844.672.332.18.707.265 1.125.265.57 0 1.015-.129 1.328-.39.32-.258.484-.633.484-1.125 0-.258-.055-.477-.156-.657a1.317 1.317 0 00-.438-.484 3 3 0 00-.734-.375 22.1 22.1 0 00-.969-.344 7.552 7.552 0 01-.953-.344 3.428 3.428 0 01-.89-.53 2.34 2.34 0 01-.657-.766c-.168-.313-.25-.676-.25-1.094 0-.738.27-1.36.813-1.86.539-.507 1.27-.765 2.187-.765.352 0 .711.047 1.078.14.364.086.66.188.891.313l.219-.469h.656l.125 2.875H6.25c-.125-.633-.402-1.148-.828-1.547A2.116 2.116 0 003.89-8.5c-.5 0-.891.125-1.172.375-.281.242-.422.54-.422.89 0 .274.047.5.14.688.094.18.235.328.422.453.176.125.399.242.672.344.281.105.625.227 1.031.36.395.124.77.277 1.125.452.352.168.645.352.875.547zm0 0"/></symbol><symbol overflow="visible" id="M"><path d="M8.61-2.11A4.593 4.593 0 017.093-.39C6.469.022 5.75.233 4.937.233 4.22.234 3.583.11 3.032-.14a3.653 3.653 0 01-1.328-1.046 4.226 4.226 0 01-.797-1.516 6.611 6.611 0 01-.25-1.844c0-.582.086-1.148.266-1.703a4.73 4.73 0 01.828-1.516 3.81 3.81 0 011.281-1.046 3.748 3.748 0 011.719-.391c.656 0 1.219.105 1.688.312.468.2.843.48 1.125.844.28.336.488.73.625 1.188.132.46.203.96.203 1.5v.609H2.469c0 .586.05 1.117.156 1.594.113.48.29.902.531 1.265.239.344.547.621.922.829.383.199.844.296 1.375.296.54 0 1.004-.125 1.39-.375.395-.25.774-.703 1.141-1.359zm-2-3.406a6.91 6.91 0 00-.094-1.093 3.399 3.399 0 00-.266-.97 2.03 2.03 0 00-.578-.687c-.242-.175-.555-.265-.938-.265-.636 0-1.168.265-1.593.797-.418.53-.641 1.273-.672 2.218zm0 0"/></symbol><symbol overflow="visible" id="N"><path d="M10.484 4.031H5.641v-.61a9.41 9.41 0 00.546-.046c.188-.023.352-.055.5-.094a.583.583 0 00.391-.312c.07-.156.11-.336.11-.531V-.876L7.14-.891a3.949 3.949 0 01-.422.391 3.24 3.24 0 01-.563.344 3.665 3.665 0 01-.703.281 2.8 2.8 0 01-.844.11 3.63 3.63 0 01-1.53-.329 3.732 3.732 0 01-1.267-.984c-.355-.406-.636-.91-.843-1.516a5.973 5.973 0 01-.313-1.984c0-.688.117-1.305.36-1.86.238-.562.562-1.05.968-1.468a4.103 4.103 0 011.36-.938A4.027 4.027 0 016-9.078c.3.074.563.164.781.266.188.074.375.171.563.296.187.125.32.211.406.25l.766-1.171.53.062c-.03.45-.07 1-.108 1.656A35.79 35.79 0 008.891-6v8.281c0 .207.035.39.109.547.082.156.21.27.39.344.145.062.329.113.547.156.227.05.41.082.547.094zM7.188-1.656v-5.36a3.121 3.121 0 00-.25-.5A2.14 2.14 0 006.53-8a2.052 2.052 0 00-.625-.36 2.329 2.329 0 00-.843-.14c-.711 0-1.31.367-1.797 1.094-.48.73-.72 1.734-.72 3.015 0 .512.048.977.142 1.391.093.406.257.79.5 1.14.207.344.476.622.812.829.332.199.754.297 1.266.297.437 0 .804-.094 1.109-.282.313-.187.582-.398.813-.64zm0 0"/></symbol><symbol overflow="visible" id="O"><path d="M4.797.234c-1.293 0-2.309-.425-3.047-1.28C1.02-1.91.656-3.067.656-4.517c0-.625.098-1.207.297-1.75.195-.55.485-1.05.86-1.5a3.82 3.82 0 011.343-1.046 4.045 4.045 0 011.766-.391c.875 0 1.586.215 2.14.64.551.418.829.985.829 1.704 0 .304-.075.574-.22.812-.148.23-.386.344-.718.344-.355 0-.633-.086-.828-.266-.2-.187-.297-.39-.297-.61 0-.269.035-.55.11-.843.07-.289.113-.5.125-.625a.84.84 0 00-.5-.375 2.15 2.15 0 00-.688-.11c-.293 0-.57.063-.828.188-.262.125-.516.356-.766.688-.23.304-.414.715-.547 1.234-.136.512-.203 1.125-.203 1.844 0 1.125.25 2.043.75 2.75.5.71 1.156 1.062 1.969 1.062.582 0 1.07-.14 1.469-.421.394-.282.765-.708 1.11-1.282l.577.375c-.398.719-.922 1.29-1.578 1.703-.656.414-1.336.625-2.031.625zm0 0"/></symbol><symbol overflow="visible" id="aS"><path d="M9.39-4.563a5.79 5.79 0 01-.312 1.86c-.2.605-.48 1.121-.844 1.547-.418.48-.902.84-1.453 1.078a4.867 4.867 0 01-1.86.344 4.357 4.357 0 01-1.624-.313 4.347 4.347 0 01-1.375-.937A4.3 4.3 0 01.984-2.47C.754-3.05.641-3.707.641-4.438c0-1.394.406-2.535 1.218-3.421.813-.895 1.88-1.344 3.204-1.344 1.25 0 2.28.422 3.093 1.265.82.844 1.235 1.97 1.235 3.375zm-1.89.016c0-.457-.047-.937-.14-1.437-.087-.508-.22-.938-.407-1.282a2.445 2.445 0 00-.766-.906c-.312-.226-.695-.344-1.14-.344-.469 0-.871.118-1.203.344-.324.23-.59.543-.797.938-.2.375-.34.804-.422 1.28-.074.47-.11.923-.11 1.36 0 .586.047 1.121.141 1.61.094.492.242.933.453 1.328.207.386.47.687.782.906.312.219.695.328 1.156.328.75 0 1.344-.363 1.781-1.094.445-.726.672-1.738.672-3.03zm0 0"/></symbol><symbol overflow="visible" id="aT"><path d="M7.516-7.797c0 .313-.079.59-.235.828-.148.23-.375.344-.687.344-.344 0-.606-.082-.782-.25a.81.81 0 01-.265-.594c0-.125.008-.238.031-.343.02-.114.04-.227.063-.344-.293 0-.633.117-1.016.344-.375.23-.7.558-.969.984v5.219c0 .21.04.382.125.515a.797.797 0 00.39.297c.145.063.337.11.579.14l.625.063V0H.656v-.594a6.25 6.25 0 01.422-.047c.156-.007.285-.03.39-.062A.734.734 0 001.845-1a1.01 1.01 0 00.125-.531v-5.516c0-.187-.047-.367-.14-.547a1.147 1.147 0 00-.36-.453 1.259 1.259 0 00-.407-.156 3.882 3.882 0 00-.515-.063v-.593l2.984-.204.125.126v1.265h.047c.375-.488.79-.86 1.25-1.11.469-.257.89-.39 1.266-.39.383 0 .695.125.937.375.239.25.36.586.36 1zm0 0"/></symbol><symbol overflow="visible" id="aU"><path d="M10.469-.156L7.344.03l-.14-.125v-.828L7.14-.937a4.018 4.018 0 01-1.188.859A3.276 3.276 0 014.531.25C4.02.25 3.523.14 3.047-.078a3.723 3.723 0 01-1.235-.969 4.656 4.656 0 01-.843-1.5A5.787 5.787 0 01.656-4.5c0-.645.11-1.254.328-1.828a4.88 4.88 0 01.938-1.531 3.997 3.997 0 011.344-.97 3.906 3.906 0 011.656-.374c.414 0 .82.058 1.219.172.406.105.754.234 1.046.39v-3.109c0-.25-.042-.477-.125-.688a1.121 1.121 0 00-.359-.484c-.168-.113-.398-.195-.687-.25a8.663 8.663 0 00-.922-.11v-.562l3.656-.203.14.125v12.078c0 .211.036.39.11.547.082.149.207.274.375.375.113.074.273.121.484.14.22.012.422.024.61.032zM7.188-1.734V-6.97a2.483 2.483 0 00-.25-.5 2.361 2.361 0 00-.391-.515 2.378 2.378 0 00-.625-.36 2.115 2.115 0 00-.828-.156c-.367 0-.7.094-1 .281a2.757 2.757 0 00-.813.797c-.23.344-.414.777-.547 1.297a7.47 7.47 0 00-.187 1.734c0 .512.047.977.14 1.391.102.418.27.805.5 1.156.208.344.477.621.813.828.332.2.723.297 1.172.297.488 0 .89-.101 1.203-.312.32-.219.594-.453.813-.703zm0 0"/></symbol><symbol overflow="visible" id="aY"><path d="M9.14-.156c-.28.093-.53.172-.75.234-.218.07-.464.11-.734.11-.468 0-.843-.11-1.125-.329-.281-.226-.465-.55-.547-.968h-.046a4.74 4.74 0 01-1.282 1c-.449.226-.992.343-1.625.343-.668 0-1.219-.203-1.656-.609C.945-.789.735-1.332.735-2c0-.352.046-.664.14-.938a2.11 2.11 0 01.438-.734 1.99 1.99 0 01.593-.469c.25-.144.485-.265.703-.359.27-.102.82-.29 1.657-.563.832-.28 1.394-.5 1.687-.656v-.906c0-.07-.016-.219-.047-.438a1.908 1.908 0 00-.734-1.234c-.219-.164-.531-.25-.938-.25a2.12 2.12 0 00-.78.14c-.243.095-.407.196-.5.298 0 .125.023.308.077.546.063.231.094.446.094.641 0 .219-.102.418-.297.594-.187.168-.45.25-.781.25-.305 0-.527-.102-.672-.313a1.27 1.27 0 01-.219-.734c0-.27.098-.531.297-.781.195-.258.453-.489.766-.688.281-.176.613-.32 1-.437a4.02 4.02 0 011.14-.172c.5 0 .938.039 1.313.11.383.062.734.21 1.047.437.3.23.531.539.687.922.164.386.25.882.25 1.484 0 .867-.011 1.633-.031 2.297-.012.668-.016 1.398-.016 2.187 0 .243.036.434.11.579.082.136.21.25.39.343.082.055.223.086.422.094h.61zM5.97-4.953c-.512.148-.965.293-1.36.437a5.587 5.587 0 00-1.078.547 2.521 2.521 0 00-.719.735c-.18.28-.265.617-.265 1 0 .5.129.87.39 1.109.27.242.61.36 1.016.36.426 0 .8-.102 1.125-.313a3.25 3.25 0 00.844-.75zm0 0"/></symbol><symbol overflow="visible" id="aZ"><path d="M8.328-.922c.25.23.442.492.578.781.133.29.203.649.203 1.079a2.663 2.663 0 01-1.125 2.188 4.617 4.617 0 01-1.468.67c-.563.157-1.258.235-2.079.235-1.355 0-2.37-.199-3.046-.593C.71 3.038.375 2.46.375 1.702c0-.625.238-1.117.719-1.469.488-.351 1.113-.546 1.875-.578V-.47a4.097 4.097 0 01-.578-.203 1.846 1.846 0 01-.485-.297 1.38 1.38 0 01-.39-.437 1.35 1.35 0 01-.141-.64c0-.321.11-.618.328-.892.227-.269.578-.5 1.047-.687v-.14c-.586-.27-1.04-.618-1.36-1.047a2.383 2.383 0 01-.484-1.485c0-.851.317-1.55.953-2.094.633-.539 1.442-.812 2.422-.812.282 0 .551.027.813.078.27.055.547.121.828.203h3.125v.875h-2.11v.063c.227.261.395.546.5.859.114.313.172.621.172.922 0 .793-.324 1.46-.968 2a3.312 3.312 0 01-2.22.812H3.313c-.136.055-.28.141-.437.266-.148.125-.219.297-.219.516 0 .23.063.402.188.515a.953.953 0 00.469.235c.175.054.378.086.609.093.226.012.469.024.719.032.27.011.632.03 1.093.062.47.024.797.04.985.047a2.3 2.3 0 01.843.203c.282.117.536.281.766.5zM5.875-6.234c0-.707-.148-1.27-.438-1.688-.28-.426-.683-.64-1.203-.64-.28 0-.527.062-.734.187-.2.117-.367.281-.5.5-.117.2-.2.438-.25.719a4.51 4.51 0 00-.078.86c0 .679.144 1.23.437 1.655.29.418.672.625 1.141.625.52 0 .922-.207 1.203-.625.281-.425.422-.957.422-1.593zm1.75 7.5c0-.336-.078-.61-.234-.829-.157-.218-.399-.37-.72-.453-.167-.02-.515-.046-1.046-.078A31.507 31.507 0 003.797-.14C3.14-.016 2.672.195 2.39.5c-.274.3-.407.688-.407 1.156 0 .219.04.422.125.61.094.195.254.379.485.546.207.157.488.282.844.376.363.101.8.156 1.312.156.895 0 1.598-.172 2.11-.516.507-.344.765-.867.765-1.562zm0 0"/></symbol><symbol overflow="visible" id="bd"><path d="M14-8.375c-.25.031-.527.14-.828.328-.293.188-.5.469-.625.844-.313.887-.606 1.73-.875 2.531-.262.793-.559 1.684-.89 2.672-.118.313-.231.652-.345 1.016-.105.367-.203.714-.296 1.046h-.782L6.953-6.53 4.531.062h-.75c-.46-1.343-.906-2.675-1.344-4-.43-1.32-.808-2.472-1.14-3.453a1.242 1.242 0 00-.547-.671 2.042 2.042 0 00-.797-.297v-.594h4v.64c-.2 0-.418.032-.656.094-.23.063-.344.164-.344.297 0 .031.008.09.031.172.02.074.047.152.079.234l.656 2.141c.25.781.566 1.797.953 3.047l2.281-6.438h.875l2.344 6.344c.258-.8.515-1.582.765-2.344a58.16 58.16 0 00.688-2.14l.11-.422c.038-.133.062-.266.062-.39a.39.39 0 00-.14-.298 1.17 1.17 0 00-.36-.203 1.632 1.632 0 00-.39-.11 1.754 1.754 0 00-.313-.046v-.578H14zm0 0"/></symbol><symbol overflow="visible" id="be"><path d="M16 0h-4.375v-.594c.145-.02.285-.035.422-.047a1.9 1.9 0 00.39-.062.734.734 0 00.376-.297c.082-.133.124-.313.124-.531v-4.61c0-.632-.148-1.117-.437-1.453-.293-.343-.652-.515-1.078-.515a2.55 2.55 0 00-.844.14 2.252 2.252 0 00-.703.375c-.18.125-.328.266-.453.422-.117.156-.203.29-.266.39v5.173c0 .21.035.382.11.515.07.137.195.242.375.313.132.054.257.094.375.125.113.023.257.043.437.062V0H6.172v-.594c.144-.02.281-.035.406-.047.133-.007.254-.03.36-.062A.65.65 0 007.313-1a1.01 1.01 0 00.125-.531v-4.61c0-.632-.149-1.117-.438-1.453a1.32 1.32 0 00-1.063-.515c-.304 0-.585.046-.843.14-.262.094-.5.219-.719.375a2.37 2.37 0 00-.453.453c-.117.168-.203.293-.266.375v5.125c0 .211.04.387.125.532a.867.867 0 00.39.312c.126.063.255.11.391.14.133.024.282.044.438.063V0H.656v-.594a6.25 6.25 0 01.422-.047c.156-.007.285-.03.39-.062A.734.734 0 001.845-1a1.01 1.01 0 00.125-.531v-5.563a.983.983 0 00-.14-.515A1.106 1.106 0 001.468-8a1.612 1.612 0 00-.422-.172 2.324 2.324 0 00-.531-.094v-.593l3-.204.125.126v1.28h.062c.156-.144.344-.32.563-.53.218-.208.421-.376.609-.5.207-.145.469-.266.781-.36.32-.101.672-.156 1.047-.156.57 0 1.067.156 1.484.469.426.312.727.695.907 1.14.219-.218.41-.406.578-.562a5.36 5.36 0 01.656-.516c.227-.156.5-.281.813-.375a3.38 3.38 0 011.046-.156c.758 0 1.36.25 1.797.75.438.5.657 1.262.657 2.281v4.563c0 .21.035.382.109.515.07.137.195.242.375.313.145.054.285.094.422.125.133.023.285.043.453.062zm0 0"/></symbol><symbol overflow="visible" id="bf"><path d="M9.75-4.484c0 1.343-.43 2.476-1.281 3.39C7.625-.187 6.645.266 5.53.266c-.5 0-.992-.079-1.468-.235a5.97 5.97 0 01-1.329-.594L2.063.484 1.5.36c.031-.445.05-.984.063-1.609.007-.633.015-1.25.015-1.844v-8.86c0-.194-.047-.398-.14-.608a1.027 1.027 0 00-.36-.454c-.117-.07-.308-.129-.578-.171-.273-.04-.484-.067-.64-.079v-.578l3.28-.203.126.125v5.906L3.328-8a3.862 3.862 0 011.235-.89 3.101 3.101 0 011.312-.313c1.102 0 2.023.437 2.766 1.312.738.875 1.109 2.012 1.109 3.407zm-1.906.062a6.81 6.81 0 00-.14-1.36 3.986 3.986 0 00-.454-1.234 2.662 2.662 0 00-.813-.843c-.335-.22-.73-.329-1.187-.329-.43 0-.805.086-1.125.25a3.253 3.253 0 00-.86.672v5.22c.04.148.114.32.22.515.1.187.25.37.437.547.176.168.379.304.61.406.226.105.507.156.843.156.738 0 1.332-.351 1.781-1.062.457-.72.688-1.696.688-2.938zm0 0"/></symbol><symbol overflow="visible" id="bg"><path d="M10.39 0H5.985v-.594c.145-.02.301-.035.47-.047.163-.007.304-.03.421-.062A.734.734 0 007.25-1a1.01 1.01 0 00.125-.531v-4.594c0-.633-.152-1.125-.453-1.469-.305-.343-.668-.515-1.094-.515-.312 0-.605.054-.875.156a3.21 3.21 0 00-.734.36c-.2.148-.356.296-.469.452a6.87 6.87 0 00-.25.375v5.157c0 .199.04.367.125.5A.768.768 0 004-.797c.133.063.27.11.406.14a9.3 9.3 0 00.469.063V0H.485v-.594c.132-.02.273-.035.421-.047.156-.007.285-.03.39-.062A.734.734 0 001.673-1c.094-.133.14-.313.14-.531v-10.422c0-.195-.046-.399-.14-.61a1.089 1.089 0 00-.375-.468c-.106-.07-.297-.125-.578-.156a9.488 9.488 0 00-.672-.079v-.578l3.328-.203.125.125v6.25h.031c.196-.195.38-.375.547-.531.164-.156.379-.317.64-.485.239-.144.509-.265.813-.359a3.416 3.416 0 011.063-.156c.789 0 1.398.258 1.828.765.437.5.656 1.231.656 2.188v4.656c0 .211.035.383.11.516a.808.808 0 00.374.297c.145.054.27.094.376.125.113.023.265.043.453.062zm0 0"/></symbol><symbol overflow="visible" id="bh"><path d="M9.5-8.39a2.06 2.06 0 00-.781.296c-.242.149-.45.406-.625.781-.356.813-.727 1.665-1.11 2.547C6.61-3.89 6.211-2.969 5.797-2c-.125.273-.258.602-.39.984-.137.387-.262.75-.376 1.094h-.703a413.26 413.26 0 00-1.594-3.875 321.66 321.66 0 00-1.5-3.61 1.402 1.402 0 00-.593-.655 2.39 2.39 0 00-.813-.297v-.594h4.14v.64c-.179 0-.405.04-.687.11-.273.074-.406.168-.406.281a.62.62 0 00.047.156c.031.075.062.157.094.25l1.046 2.594c.458 1.106.829 1.996 1.11 2.672.219-.52.492-1.164.828-1.938.332-.78.688-1.648 1.063-2.609.062-.156.117-.305.171-.453.063-.145.094-.29.094-.438 0-.093-.055-.18-.156-.265a1.373 1.373 0 00-.36-.219 2.185 2.185 0 00-.406-.14 4.087 4.087 0 00-.328-.063v-.578H9.5zm0 0"/></symbol><symbol overflow="visible" id="bM"><path d="M10.656-4.516H6.562v4.094H5.407v-4.094H1.313V-5.64h4.093v-4.093h1.157v4.093h4.093zm0 0"/></symbol><symbol overflow="visible" id="aF"><path d="M8.828.14v1.47h2.64v1.937h-2.64v1.75H7.375v-1.75H2.656c-.199 0-.375.004-.531.015a.944.944 0 00-.375.126.598.598 0 00-.219.28c-.054.126-.078.298-.078.516v.407c.008.132.031.27.063.406h-1.5c-.02-.211-.04-.418-.063-.625a6.763 6.763 0 01-.031-.625c0-.524.047-.938.14-1.25.094-.313.235-.559.422-.735.188-.167.422-.28.704-.343.289-.063.617-.102.984-.11h5.203V.141zm0 0"/></symbol><symbol overflow="visible" id="aG"><path d="M8.828 1.016v1.828H7.11v.031c.239.063.473.172.704.328.226.164.437.363.625.594.187.238.335.5.453.781.113.29.171.582.171.875 0 .227-.007.383-.015.469a4.54 4.54 0 00-.031.266H7.125c.031-.137.05-.278.063-.422a2.89 2.89 0 00.03-.407c0-.336-.07-.648-.202-.937a2.063 2.063 0 00-.579-.766 2.813 2.813 0 00-.937-.5 4.105 4.105 0 00-1.297-.187H0V1.016zm0 0"/></symbol><symbol overflow="visible" id="aH"><path d="M1.969 8.406c-.242 0-.414.031-.516.094-.105.063-.156.18-.156.36v.203c0 .082.008.175.031.28H-.016a7.2 7.2 0 00-.078-.265 4.031 4.031 0 01-.078-.328 5.563 5.563 0 01-.047-.344c-.008-.117-.015-.215-.015-.297 0-.398.078-.726.234-.984.156-.262.438-.434.844-.516a3.265 3.265 0 01-.828-1.421 5.814 5.814 0 01-.25-1.625c0-.399.054-.778.156-1.141.101-.367.258-.688.469-.969a2.43 2.43 0 01.812-.656c.32-.168.703-.25 1.14-.25.54 0 .985.098 1.329.297.344.195.61.457.797.781.195.32.336.688.422 1.094.082.406.144.812.187 1.219.07.351.117.687.14 1 .032.32.083.601.157.843.07.25.176.442.313.578.144.145.359.22.64.22.25 0 .453-.063.61-.188a1.16 1.16 0 00.375-.438c.082-.18.14-.375.171-.594a4.16 4.16 0 00.047-.609c0-.543-.117-.992-.343-1.344-.231-.355-.586-.554-1.063-.594V.875c.57.031 1.047.164 1.422.406.375.239.672.54.89.907.227.374.391.789.485 1.25.094.468.14.945.14 1.437 0 .426-.046.848-.14 1.266a3.65 3.65 0 01-.453 1.14 2.3 2.3 0 01-.781.813c-.325.207-.72.312-1.188.312zm2.453-1.953c-.2-.293-.32-.656-.36-1.094-.03-.43-.09-.855-.171-1.28a3.845 3.845 0 00-.141-.61 1.655 1.655 0 00-.266-.5 1.19 1.19 0 00-.421-.36 1.465 1.465 0 00-.641-.125.808.808 0 00-.547.188 1.27 1.27 0 00-.344.453 2.23 2.23 0 00-.187.578 3.875 3.875 0 00-.047.578c0 .219.023.453.078.703.063.25.16.485.297.704.133.218.305.398.516.546.218.145.476.22.78.22zm0 0"/></symbol><symbol overflow="visible" id="aI"><path d="M8.828 1.016v1.843H7.531l-.047.032c.489.3.875.687 1.157 1.156.28.476.421 1.008.421 1.594 0 .968-.25 1.726-.75 2.28-.5.563-1.25.845-2.25.845H0V6.812h5.547c.695-.023 1.203-.167 1.516-.437.312-.273.468-.7.468-1.281 0-.324-.062-.621-.187-.89a1.882 1.882 0 00-.5-.673 2.343 2.343 0 00-.735-.422 2.86 2.86 0 00-.906-.14H0V1.016zm0 0"/></symbol><symbol overflow="visible" id="aJ"><path d="M2.828 2.484c-.562.063-.96.282-1.187.657-.23.375-.344.82-.344 1.343 0 .176.008.38.031.61.031.238.086.457.172.656.082.207.195.375.344.5.156.133.36.195.61.188a.864.864 0 00.608-.266c.165-.168.297-.387.391-.656a8.15 8.15 0 00.25-.922c.07-.336.145-.68.219-1.032.082-.367.18-.714.297-1.046.113-.336.265-.637.453-.907a2.05 2.05 0 01.75-.64c.3-.156.672-.235 1.11-.235.476 0 .878.114 1.202.344.32.238.582.535.782.89.207.352.347.75.421 1.188.083.438.126.86.126 1.266 0 .445-.055.879-.157 1.297-.094.414-.25.789-.469 1.125a2.63 2.63 0 01-.843.828c-.344.226-.762.367-1.25.422V6.063c.468-.086.781-.297.937-.641.164-.336.25-.715.25-1.14 0-.137-.015-.298-.047-.485a2.295 2.295 0 00-.125-.531 1.056 1.056 0 00-.28-.422.607.607 0 00-.454-.172.77.77 0 00-.594.25 1.895 1.895 0 00-.36.64 7.53 7.53 0 00-.25.922 26.21 26.21 0 01-.218 1.063c-.086.344-.183.687-.297 1.031a2.944 2.944 0 01-.453.906c-.2.27-.445.489-.734.657-.293.164-.656.25-1.094.25-.523 0-.965-.121-1.328-.36a2.84 2.84 0 01-.89-.937 3.826 3.826 0 01-.485-1.266 6.512 6.512 0 01-.156-1.375c0-.562.062-1.078.187-1.547.125-.469.313-.883.563-1.234a2.8 2.8 0 01.953-.813c.383-.199.836-.304 1.36-.312zm0 0"/></symbol><symbol overflow="visible" id="aK"><path d="M8.828.156V1.61h.735c.55 0 1 .067 1.343.204.352.132.625.312.813.53.187.227.312.489.375.782.062.29.094.598.094.922 0 .625-.043 1.078-.126 1.36h-1.515A2.53 2.53 0 0010.609 5c.02-.137.032-.305.032-.5a1.18 1.18 0 00-.188-.672c-.125-.187-.371-.281-.734-.281h-.89v1.656H7.374V3.547H0V1.609h7.375V.156zm0 0"/></symbol><symbol overflow="visible" id="aL"><path d="M-.234 5.063c0-.711.117-1.34.343-1.891a4.012 4.012 0 01.954-1.39c.414-.387.906-.68 1.468-.876A5.716 5.716 0 014.421.61a5.51 5.51 0 011.845.297c.57.196 1.062.489 1.468.875.414.383.739.848.97 1.39.237.552.358 1.18.358 1.892 0 .707-.12 1.332-.359 1.875a4.028 4.028 0 01-.969 1.406 4.075 4.075 0 01-1.468.875 5.598 5.598 0 01-1.844.297c-.688 0-1.32-.102-1.89-.297a4.212 4.212 0 01-1.47-.875A4.04 4.04 0 01.11 6.938c-.226-.543-.343-1.168-.343-1.875zm1.53 0c0 .425.087.8.266 1.125.188.32.426.582.72.78.3.208.632.36 1 .454a4.623 4.623 0 002.266 0 2.956 2.956 0 00.999-.453c.289-.2.523-.461.703-.782a2.2 2.2 0 00.281-1.125c0-.43-.093-.804-.281-1.125a2.39 2.39 0 00-.703-.796 3.09 3.09 0 00-1-.438 4.623 4.623 0 00-2.266 0 3.238 3.238 0 00-1 .438 2.477 2.477 0 00-.719.796c-.18.32-.265.696-.265 1.126zm0 0"/></symbol><symbol overflow="visible" id="aM"><path d="M8.828 1.016v1.843H7.594v.063c.218.144.414.3.593.469.188.164.344.351.47.562.124.219.222.461.296.735.07.269.11.582.11.937a3.18 3.18 0 01-.36 1.484c-.242.47-.61.797-1.11.985.458.332.817.71 1.079 1.14.258.438.39.977.39 1.625 0 .926-.23 1.649-.687 2.172-.46.52-1.219.781-2.281.781H0V11.86h5.156c.352 0 .672-.011.953-.03.29-.024.54-.09.75-.204.22-.105.383-.266.5-.484.114-.211.172-.5.172-.875 0-.657-.21-1.137-.625-1.438-.406-.293-.984-.437-1.734-.437H0V6.437h5.672c.613 0 1.078-.109 1.39-.328.313-.218.47-.625.47-1.218 0-.25-.055-.496-.157-.735a1.855 1.855 0 00-.453-.61 2.36 2.36 0 00-.719-.421 2.754 2.754 0 00-.969-.156H0V1.016zm0 0"/></symbol><symbol overflow="visible" id="aN"><path d="M5.188 7.078c.3-.023.593-.09.875-.203a2.3 2.3 0 00.75-.438c.207-.187.378-.417.515-.687a1.94 1.94 0 00.203-.89c0-.344-.062-.657-.187-.938a1.962 1.962 0 00-.5-.703 2.58 2.58 0 00-.735-.485 2.536 2.536 0 00-.921-.187zM3.905 2.547c-.344 0-.68.047-1 .14-.312.094-.59.235-.828.422a2.149 2.149 0 00-.578.735c-.137.3-.203.656-.203 1.062 0 .57.117 1.032.36 1.375.25.344.616.602 1.109.782v1.843A3.718 3.718 0 01.53 7.47a3.914 3.914 0 01-.56-1.19 4.722 4.722 0 01-.203-1.375c0-.687.109-1.304.328-1.843.226-.532.547-.985.953-1.36.414-.367.906-.64 1.469-.828a6.039 6.039 0 011.89-.281c.625 0 1.219.097 1.782.297a4.558 4.558 0 011.484.843c.426.375.766.82 1.016 1.344.25.531.374 1.125.374 1.781a3.96 3.96 0 01-.437 1.86A4.207 4.207 0 017.47 8.093a4.761 4.761 0 01-1.657.797 4.949 4.949 0 01-1.906.125zm0 0"/></symbol><symbol overflow="visible" id="aP"><path d="M12.188 1.078v1.938H7.671v.03a2.6 2.6 0 01.578.485c.176.196.32.41.438.64a3.257 3.257 0 01.375 1.5c0 .696-.126 1.302-.376 1.813a3.57 3.57 0 01-1 1.297 4.33 4.33 0 01-1.5.766 6.452 6.452 0 01-1.812.25 6.45 6.45 0 01-1.734-.235 4.35 4.35 0 01-1.47-.687A3.518 3.518 0 01.14 7.687C-.11 7.207-.234 6.646-.234 6c0-.293.023-.59.062-.89.031-.305.106-.594.219-.876A2.88 2.88 0 01.484 3.5c.188-.219.43-.402.735-.547v-.031H0V1.078zM4.405 7.86c.395 0 .782-.054 1.157-.156a3.23 3.23 0 001-.469c.289-.199.523-.453.703-.765.175-.305.265-.653.265-1.047 0-.824-.289-1.445-.86-1.86-.573-.406-1.327-.609-2.265-.609-.449 0-.867.05-1.25.156A2.6 2.6 0 001.53 4.376c-.156.3-.234.648-.234 1.047 0 .437.086.805.266 1.11.187.312.425.566.718.765.29.207.617.351.985.437.375.082.754.125 1.14.125zm0 0"/></symbol><symbol overflow="visible" id="aO"><path d="M12.188 1.078v1.938H0V1.078zm0 0"/></symbol><symbol overflow="visible" id="aQ"><path d="M5.875 6.969c.54-.074.953-.293 1.234-.657.282-.355.422-.808.422-1.359 0-.25-.047-.516-.14-.797a1.878 1.878 0 00-.485-.781c-.23-.242-.554-.438-.968-.594-.407-.156-.95-.234-1.625-.234-.368 0-.731.039-1.094.125a2.841 2.841 0 00-.969.406 2.24 2.24 0 00-.688.719c-.18.3-.265.66-.265 1.078 0 .57.176 1.04.531 1.406.352.364.848.594 1.484.688v1.953c-1.148-.188-2.027-.625-2.64-1.313-.606-.687-.906-1.601-.906-2.734 0-.7.117-1.313.343-1.844.227-.523.547-.965.954-1.328.406-.367.882-.64 1.437-.828A5.685 5.685 0 014.313.594a6.22 6.22 0 011.859.265 4.35 4.35 0 011.516.829c.425.363.757.816 1 1.359.25.539.374 1.172.374 1.89 0 .508-.07.993-.203 1.454-.125.468-.32.879-.578 1.234a2.924 2.924 0 01-1 .875c-.398.227-.867.367-1.406.422zm0 0"/></symbol><symbol overflow="visible" id="aR"><path d="M12.188 1.078v1.938H5.25L8.828 6.53v2.39l-3.25-3.374L0 9.234V6.875l4.281-2.703-1.125-1.156H0V1.078zm0 0"/></symbol><symbol overflow="visible" id="aW"><path d="M8.828.156v2.11L2.047 4.5v.031l6.781 2.157v2L0 5.546V3.359zm0 0"/></symbol><symbol overflow="visible" id="aX"><path d="M.453 9.172c-1.32 0-2.312-.375-2.969-1.125-.656-.742-.984-1.809-.984-3.203 0-.45.047-.899.14-1.344.094-.45.25-.86.47-1.234.21-.368.492-.672.843-.922.356-.25.79-.399 1.297-.438v1.938a1.58 1.58 0 00-.656.297 1.378 1.378 0 00-.407.484c-.101.188-.164.39-.187.61a5.29 5.29 0 00-.047.718c0 .79.195 1.367.578 1.734.387.364.946.547 1.672.547h1.344v-.046a2.913 2.913 0 01-1.14-1.11A2.985 2.985 0 010 4.547c0-.7.117-1.297.36-1.797.25-.492.585-.898 1.015-1.219A4.332 4.332 0 012.844.813 7.013 7.013 0 014.64.593 5.23 5.23 0 016.328.86c.531.188 1 .454 1.406.797.407.344.727.758.97 1.25.237.489.358 1.047.358 1.672 0 .563-.12 1.07-.359 1.531-.23.47-.594.829-1.094 1.079v.046h1.22v1.938zm1.078-4.313c0 .426.086.79.266 1.094.176.3.41.547.703.734.29.188.617.32.984.407.375.093.75.14 1.125.14s.739-.046 1.094-.14c.352-.094.664-.235.938-.422a2.01 2.01 0 00.64-.734c.164-.305.25-.665.25-1.079 0-.437-.093-.804-.281-1.093a2.246 2.246 0 00-.703-.72 3.2 3.2 0 00-1-.39 5.496 5.496 0 00-1.094-.11c-.367 0-.726.04-1.078.126a2.97 2.97 0 00-.922.422 2.277 2.277 0 00-.672.719c-.168.289-.25.64-.25 1.046zm0 0"/></symbol><symbol overflow="visible" id="ba"><path d="M0 4.844V.484h.594c.02.133.035.282.047.438.007.156.03.285.062.39.063.176.16.305.297.391.133.082.313.125.531.125h10.375c.219 0 .422-.047.61-.14.187-.094.336-.22.453-.375.07-.106.133-.305.187-.594a9.32 9.32 0 00.125-.703h.578l.204 3.375-.126.125H1.642c-.22 0-.399.035-.532.109a.758.758 0 00-.312.39 2.15 2.15 0 00-.14.391 9.052 9.052 0 00-.063.438zm0 0"/></symbol><symbol overflow="visible" id="bb"><path d="M4.578 9.375a6.148 6.148 0 01-1.875-.297 4.374 4.374 0 01-1.547-.86A4.039 4.039 0 01.078 6.767a4.758 4.758 0 01-.344-1.844c0-.574.106-1.117.313-1.625.219-.512.531-.969.937-1.375A4.3 4.3 0 012.47.984C3.064.754 3.72.641 4.439.641c1.406 0 2.55.406 3.437 1.218.895.813 1.344 1.88 1.344 3.204 0 1.25-.43 2.28-1.281 3.093-.844.813-1.965 1.219-3.36 1.219zM4.547 7.5c.457 0 .937-.047 1.437-.14.508-.087.942-.22 1.297-.407.375-.2.672-.453.89-.766.227-.312.345-.699.345-1.156 0-.46-.118-.855-.344-1.187a2.404 2.404 0 00-.938-.797c-.375-.2-.796-.34-1.265-.422a8.804 8.804 0 00-1.375-.11c-.586 0-1.121.047-1.61.141a4.631 4.631 0 00-1.328.453 2.405 2.405 0 00-.906.766c-.219.313-.328.695-.328 1.156 0 .758.363 1.36 1.094 1.797.726.445 1.738.672 3.03.672zm0 0"/></symbol><symbol overflow="visible" id="bc"><path d="M4.39 6.563a2.14 2.14 0 01-.765.562c-.281.133-.625.203-1.031.203-.836 0-1.516-.312-2.047-.937C.023 5.773-.234 4.977-.234 4c0-.523.093-1.008.28-1.453.188-.438.36-.75.516-.938l-.593-.171V.75L3.094.656v.64c-.242.04-.516.141-.828.298a3.9 3.9 0 00-.86.578c-.261.238-.484.52-.672.844a2.29 2.29 0 00-.265 1.109c0 .582.129 1.031.39 1.344.258.32.633.484 1.125.484.258 0 .477-.055.657-.156.187-.106.351-.25.5-.438a4.23 4.23 0 00.375-.734c.113-.293.222-.617.328-.969.082-.293.195-.617.344-.969.156-.343.332-.636.53-.874a2.34 2.34 0 01.766-.657c.313-.168.68-.25 1.11-.25.726 0 1.347.27 1.86.813.507.539.765 1.27.765 2.187 0 .352-.047.711-.14 1.078-.095.364-.204.66-.329.891l.469.203v.656l-2.875.141V6.25c.644-.125 1.164-.402 1.562-.828.407-.418.61-.93.61-1.531 0-.5-.125-.899-.375-1.188a1.174 1.174 0 00-.907-.422c-.273 0-.5.047-.687.14-.18.095-.328.235-.453.423a4.68 4.68 0 00-.344.687c-.105.281-.227.625-.36 1.031-.124.395-.273.77-.437 1.125a3.674 3.674 0 01-.562.875zm0 0"/></symbol><symbol overflow="visible" id="bN"><path d="M7.89 8.828a4.27 4.27 0 01-1.468.828c-.563.196-1.203.297-1.922.297a5.06 5.06 0 01-1.938-.36 4.739 4.739 0 01-1.5-.921 4.455 4.455 0 01-.968-1.36 3.833 3.833 0 01-.328-1.578c0-.53.062-.976.187-1.328.113-.343.254-.625.422-.843V3.5h-2.688c-.218 0-.398.04-.546.125a.764.764 0 00-.329.39c-.05.145-.101.348-.156.61-.05.27-.078.492-.078.672h-.61v-5h.61c.012.187.027.367.047.547.012.176.04.332.078.469a.626.626 0 00.328.39c.149.07.324.11.531.11h9.532c.187 0 .363-.047.531-.141.164-.094.3-.215.406-.36.07-.105.13-.257.172-.453.04-.187.067-.375.078-.562h.594l.188 3.047-.11.14h-1l-.016.063c.364.312.665.703.907 1.172.238.468.36.93.36 1.39 0 .563-.122 1.07-.36 1.532a3.67 3.67 0 01-.953 1.187zM1.454 7.36c.375.239.805.414 1.297.532a7.56 7.56 0 001.672.171c.445 0 .906-.054 1.375-.156a4.072 4.072 0 001.219-.437c.351-.211.64-.48.859-.813.219-.336.328-.734.328-1.203 0-.45-.101-.828-.297-1.14a3.538 3.538 0 00-.703-.813H1.906c-.168.05-.34.14-.515.266A2.296 2.296 0 00.562 4.78a2.02 2.02 0 00-.14.797c0 .344.086.672.266.984.187.313.44.579.765.797zm0 0"/></symbol><symbol overflow="visible" id="bO"><path d="M0 10.547v-4.39h.594c.02.132.035.284.047.452.007.164.03.305.062.422.063.164.16.29.297.375.133.082.313.125.531.125h4.61c.632 0 1.125-.152 1.468-.453.344-.305.516-.668.516-1.094 0-.324-.055-.62-.156-.89a2.976 2.976 0 00-.36-.703c-.148-.2-.296-.36-.453-.485a2.72 2.72 0 00-.39-.25H1.625c-.21 0-.383.04-.516.125a.758.758 0 00-.312.39c-.063.126-.11.259-.14.407a10.78 10.78 0 00-.063.453H0V.656h.594c.02.133.035.274.047.422.007.156.03.285.062.39.063.165.16.29.297.376.133.082.313.125.531.125h5.532c.207 0 .394-.047.562-.14.176-.087.316-.204.422-.36.07-.117.125-.25.156-.407a2.86 2.86 0 00.078-.515h.594l.188 2.984-.126.125H7.673v.047c.144.145.316.328.516.547.207.219.378.422.515.61.133.226.25.492.344.796.101.313.156.66.156 1.047 0 .863-.273 1.504-.812 1.922-.532.414-1.243.625-2.125.625H1.594c-.211 0-.383.031-.516.094a.705.705 0 00-.297.375c-.062.144-.105.27-.125.375a4.909 4.909 0 00-.062.453zm0 0"/></symbol><symbol overflow="visible" id="bP"><path d="M2.11 8.61A4.593 4.593 0 01.39 7.093c-.413-.625-.624-1.344-.624-2.157 0-.73.125-1.367.375-1.906a3.65 3.65 0 011.046-1.328A4.24 4.24 0 012.703.905a6.611 6.611 0 011.844-.25c.582 0 1.156.086 1.719.266a4.73 4.73 0 011.515.828c.426.344.77.77 1.032 1.281a3.62 3.62 0 01.406 1.719c0 .656-.106 1.21-.313 1.672-.21.469-.492.848-.844 1.14a3.428 3.428 0 01-1.203.625 5.38 5.38 0 01-1.5.204h-.593V2.453a6.78 6.78 0 00-1.61.172 3.69 3.69 0 00-1.25.531 2.617 2.617 0 00-.843.922c-.2.383-.297.844-.297 1.375s.125.988.375 1.375c.25.395.703.774 1.359 1.14zm3.42-2.017c.332 0 .692-.032 1.078-.094.395-.055.723-.14.985-.266a1.84 1.84 0 00.672-.578c.175-.242.265-.547.265-.922 0-.636-.265-1.168-.797-1.593-.53-.418-1.265-.649-2.203-.688zm0 0"/></symbol><symbol overflow="visible" id="bQ"><path d="M.922 8.328a2.67 2.67 0 01-.781.563c-.29.144-.649.218-1.079.218-.425 0-.828-.093-1.203-.28a2.742 2.742 0 01-1-.86 4.78 4.78 0 01-.656-1.453c-.156-.563-.234-1.258-.234-2.079 0-1.367.199-2.386.593-3.062.399-.668.977-1 1.735-1 .625 0 1.117.238 1.469.719.351.488.546 1.11.578 1.86h.125c.05-.18.117-.368.203-.563a2.17 2.17 0 01.297-.5 1.47 1.47 0 01.437-.375c.176-.094.39-.141.64-.141.321 0 .618.11.892.328.269.227.503.57.703 1.031h.125c.28-.574.632-1.023 1.062-1.343A2.383 2.383 0 016.312.906c.844 0 1.536.317 2.079.953.55.633.828 1.442.828 2.422 0 .27-.031.54-.094.813a10.2 10.2 0 01-.203.828v3.125h-.875v-2.11H8a2.64 2.64 0 01-.875.485 2.703 2.703 0 01-.922.172c-.781 0-1.45-.32-2-.953a3.337 3.337 0 01-.812-2.235V3.313a1.746 1.746 0 00-.266-.438c-.125-.148-.297-.219-.516-.219-.23 0-.402.063-.515.188a.953.953 0 00-.235.469 2.125 2.125 0 00-.093.593 49.204 49.204 0 01-.094 1.813c-.024.469-.04.8-.047 1a2.299 2.299 0 01-.203.843 2.492 2.492 0 01-.5.766zM6.25 5.875c.707 0 1.27-.148 1.688-.438.414-.28.625-.683.625-1.203 0-.293-.06-.539-.172-.734a1.425 1.425 0 00-.5-.5c-.2-.117-.438-.2-.72-.25a4.586 4.586 0 00-.874-.078c-.68 0-1.23.144-1.656.437-.418.29-.625.672-.625 1.141 0 .52.207.922.625 1.203.425.281.96.422 1.609.422zm-7.516 1.75c.336 0 .61-.086.829-.25.218-.156.37-.398.453-.719.02-.168.046-.515.078-1.047.031-.523.047-1.132.047-1.828-.125-.648-.336-1.11-.641-1.39-.3-.274-.688-.407-1.156-.407-.219 0-.422.04-.61.125a1.492 1.492 0 00-.546.485c-.157.207-.282.488-.376.844-.101.363-.156.8-.156 1.312 0 .883.172 1.582.516 2.094.344.52.867.781 1.562.781zm0 0"/></symbol></defs><g clip-path="url(#a)"><path fill="#fff" d="M0 0h779.225v345.267H0z"/></g><path d="M.002-.002h37.874" transform="matrix(.7754 0 0 .77474 661.483 167.048)" fill="none" stroke-width="4" stroke="#000"/><path d="M689.3 173.555l13.028-6.508-13.027-6.508zm0 0"/><path d="M.002.002h263.023" transform="matrix(.7754 0 0 .77474 300.643 176.467)" fill="none" stroke-width="4" stroke="#000"/><path d="M503.04 182.977l13.026-6.508-13.027-6.508zm0 0"/><path d="M2.339-.002H300.81" transform="matrix(0 .77474 -.7754 0 299.78 60.762)" fill="none" stroke-width="4" stroke="#000"/><path d="M0 0h6" transform="matrix(2.1711 0 0 2.16927 293.266 293.998)" fill="none" stroke-width="1.429" stroke="#000" stroke-miterlimit="10"/><path d="M0 0h6" transform="matrix(-2.1711 0 0 -2.16927 306.293 62.39)" fill="none" stroke-width="1.429" stroke="#000" stroke-miterlimit="10"/><path d="M2.339-.002h295.835" transform="matrix(0 .77474 -.7754 0 516.065 60.762)" fill="none" stroke-width="4" stroke="#000"/><path d="M0 0h6" transform="matrix(2.1711 0 0 2.16927 509.551 291.954)" fill="none" stroke-width="1.429" stroke="#000" stroke-miterlimit="10"/><path d="M0 0h6" transform="matrix(-2.1711 0 0 -2.16927 522.578 62.39)" fill="none" stroke-width="1.429" stroke="#000" stroke-miterlimit="10"/><path d="M291.715 73.184v28.058H262.55V73.184zm-29.165 0v28.058h-29.163V73.184zm0 0" fill="#d6d5d5"/><path d="M233.387 73.184v28.058h-29.168V73.184zm0 0" fill="#fff"/><g clip-path="url(#b)"><path d="M.998 39.613h38.219" transform="matrix(0 .77474 -.7754 0 293.266 71.633)" fill="none" stroke-width="2" stroke="#929292"/></g><g clip-path="url(#c)"><path d="M.998 77.225h38.219" transform="matrix(0 .77474 -.7754 0 293.266 71.633)" fill="none" stroke-width="2" stroke="#929292"/></g><g clip-path="url(#d)"><path d="M2.002.998V115.84" transform="matrix(0 .77474 -.7754 0 293.266 71.633)" fill="none" stroke-width="2" stroke="#929292"/></g><g clip-path="url(#e)"><path d="M38.219.998V115.84" transform="matrix(0 .77474 -.7754 0 293.266 71.633)" fill="none" stroke-width="2" stroke="#929292"/></g><g clip-path="url(#f)"><path d="M.998 2h38.219" transform="matrix(0 .77474 -.7754 0 293.266 71.633)" fill="none" stroke-width="2" stroke="#929292"/></g><g clip-path="url(#g)"><path d="M.998 114.842h38.219" transform="matrix(0 .77474 -.7754 0 293.266 71.633)" fill="none" stroke-width="2" stroke="#929292"/></g><path d="M291.715 131.918v28.059H262.55v-28.059zm0 0" fill="#d6d5d5"/><path d="M262.55 131.918v28.059h-29.163v-28.059zm-29.163 0v28.059h-29.168v-28.059zm0 0" fill="#5e5e5e"/><g clip-path="url(#h)"><path d="M.999 39.613h38.218" transform="matrix(0 .77474 -.7754 0 293.266 130.367)" fill="none" stroke-width="2" stroke="#929292"/></g><g clip-path="url(#i)"><path d="M.999 77.225h38.218" transform="matrix(0 .77474 -.7754 0 293.266 130.367)" fill="none" stroke-width="2" stroke="#929292"/></g><g clip-path="url(#j)"><path d="M2.002.998v38.615" transform="matrix(0 .77474 -.7754 0 293.266 130.367)" fill="none" stroke-width="2" stroke="#929292"/></g><g clip-path="url(#k)"><path d="M2.002 39.613v76.226" transform="matrix(0 .77474 -.7754 0 293.266 130.367)" fill="none" stroke-width="2" stroke="#929292"/></g><g clip-path="url(#l)"><path d="M38.219.998v38.615" transform="matrix(0 .77474 -.7754 0 293.266 130.367)" fill="none" stroke-width="2" stroke="#929292"/></g><g clip-path="url(#m)"><path d="M38.219 39.613v76.226" transform="matrix(0 .77474 -.7754 0 293.266 130.367)" fill="none" stroke-width="2" stroke="#929292"/></g><g clip-path="url(#n)"><path d="M.999 2h38.218" transform="matrix(0 .77474 -.7754 0 293.266 130.367)" fill="none" stroke-width="2" stroke="#929292"/></g><g clip-path="url(#o)"><path d="M.999 114.842h38.218" transform="matrix(0 .77474 -.7754 0 293.266 130.367)" fill="none" stroke-width="2" stroke="#929292"/></g><path d="M291.715 190.652v28.059H262.55v-28.059zm0 0" fill="#fff"/><path d="M262.55 190.652v28.059h-29.163v-28.059zm0 0" fill="#929292"/><path d="M233.387 190.652v28.059h-29.168v-28.059zm0 0" fill="#fff"/><g clip-path="url(#p)"><path d="M.999 39.613h38.218" transform="matrix(0 .77474 -.7754 0 293.266 189.101)" fill="none" stroke-width="2" stroke="#929292"/></g><g clip-path="url(#q)"><path d="M.999 77.225h38.218" transform="matrix(0 .77474 -.7754 0 293.266 189.101)" fill="none" stroke-width="2" stroke="#929292"/></g><g clip-path="url(#r)"><path d="M2.002.998v38.615" transform="matrix(0 .77474 -.7754 0 293.266 189.101)" fill="none" stroke-width="2" stroke="#929292"/></g><g clip-path="url(#s)"><path d="M2.002 39.613v37.612" transform="matrix(0 .77474 -.7754 0 293.266 189.101)" fill="none" stroke-width="2" stroke="#929292"/></g><g clip-path="url(#t)"><path d="M2.002 77.225v38.614" transform="matrix(0 .77474 -.7754 0 293.266 189.101)" fill="none" stroke-width="2" stroke="#929292"/></g><g clip-path="url(#u)"><path d="M38.219.998v38.615" transform="matrix(0 .77474 -.7754 0 293.266 189.101)" fill="none" stroke-width="2" stroke="#929292"/></g><path d="M38.219 39.613v37.612" transform="matrix(0 .77474 -.7754 0 293.266 189.101)" fill="none" stroke-width="2" stroke="#929292"/><g clip-path="url(#v)"><path d="M38.219 77.225v38.614" transform="matrix(0 .77474 -.7754 0 293.266 189.101)" fill="none" stroke-width="2" stroke="#929292"/></g><g clip-path="url(#w)"><path d="M.999 2h38.218" transform="matrix(0 .77474 -.7754 0 293.266 189.101)" fill="none" stroke-width="2" stroke="#929292"/></g><g clip-path="url(#x)"><path d="M.999 114.842h38.218" transform="matrix(0 .77474 -.7754 0 293.266 189.101)" fill="none" stroke-width="2" stroke="#929292"/></g><path d="M291.715 249.387v28.058H262.55v-28.058zm0 0" fill="#d6d5d5"/><path d="M262.55 249.387v28.058h-29.163v-28.058zm0 0" fill="#5e5e5e"/><path d="M233.387 249.387v28.058h-29.168v-28.058zm0 0" fill="#d6d5d5"/><g clip-path="url(#y)"><path d="M.998 39.613h38.219" transform="matrix(0 .77474 -.7754 0 293.266 247.836)" fill="none" stroke-width="2" stroke="#929292"/></g><g clip-path="url(#z)"><path d="M.998 77.225h38.219" transform="matrix(0 .77474 -.7754 0 293.266 247.836)" fill="none" stroke-width="2" stroke="#929292"/></g><g clip-path="url(#A)"><path d="M2.002.998v38.615" transform="matrix(0 .77474 -.7754 0 293.266 247.836)" fill="none" stroke-width="2" stroke="#929292"/></g><path d="M2.002 39.613v37.612" transform="matrix(0 .77474 -.7754 0 293.266 247.836)" fill="none" stroke-width="2" stroke="#929292"/><g clip-path="url(#B)"><path d="M2.002 77.225v38.614" transform="matrix(0 .77474 -.7754 0 293.266 247.836)" fill="none" stroke-width="2" stroke="#929292"/></g><g clip-path="url(#C)"><path d="M38.219.998v38.615" transform="matrix(0 .77474 -.7754 0 293.266 247.836)" fill="none" stroke-width="2" stroke="#929292"/></g><path d="M38.219 39.613v37.612" transform="matrix(0 .77474 -.7754 0 293.266 247.836)" fill="none" stroke-width="2" stroke="#929292"/><g clip-path="url(#D)"><path d="M38.219 77.225v38.614" transform="matrix(0 .77474 -.7754 0 293.266 247.836)" fill="none" stroke-width="2" stroke="#929292"/></g><g clip-path="url(#E)"><path d="M.998 2h38.219" transform="matrix(0 .77474 -.7754 0 293.266 247.836)" fill="none" stroke-width="2" stroke="#929292"/></g><g clip-path="url(#F)"><path d="M.998 114.842h38.219" transform="matrix(0 .77474 -.7754 0 293.266 247.836)" fill="none" stroke-width="2" stroke="#929292"/></g><use xlink:href="#G" x="23.003" y="19.056"/><use xlink:href="#H" x="28.456" y="19.056"/><use xlink:href="#I" x="39.45" y="19.056"/><use xlink:href="#J" x="50.082" y="19.056"/><use xlink:href="#K" x="60.786" y="19.056"/><use xlink:href="#L" x="67.21" y="19.056"/><use xlink:href="#L" x="8.003" y="40.056"/><use xlink:href="#M" x="16.044" y="40.056"/><use xlink:href="#N" x="25.034" y="40.056"/><use xlink:href="#J" x="35.439" y="40.056"/><use xlink:href="#M" x="46.141" y="40.056"/><use xlink:href="#H" x="55.131" y="40.056"/><use xlink:href="#O" x="66.131" y="40.056"/><use xlink:href="#M" x="74.582" y="40.056"/><path d="M528.996 276.277V248.22h29.168v28.058zm29.168 0V248.22h29.164v28.058zm0 0" fill="#d6d5d5"/><path d="M587.328 276.277V248.22h29.164v28.058zm0 0" fill="#fff"/><g clip-path="url(#P)"><path d="M.998 39.615h38.219" transform="matrix(0 -.77474 .7754 0 527.447 277.828)" fill="none" stroke-width="2" stroke="#929292"/></g><g clip-path="url(#Q)"><path d="M.998 77.227h38.219" transform="matrix(0 -.77474 .7754 0 527.447 277.828)" fill="none" stroke-width="2" stroke="#929292"/></g><g clip-path="url(#R)"><path d="M2.002 1v114.842" transform="matrix(0 -.77474 .7754 0 527.447 277.828)" fill="none" stroke-width="2" stroke="#929292"/></g><g clip-path="url(#S)"><path d="M38.218 1v114.842" transform="matrix(0 -.77474 .7754 0 527.447 277.828)" fill="none" stroke-width="2" stroke="#929292"/></g><g clip-path="url(#T)"><path d="M.998 1.998h38.219" transform="matrix(0 -.77474 .7754 0 527.447 277.828)" fill="none" stroke-width="2" stroke="#929292"/></g><g clip-path="url(#U)"><path d="M.998 114.84h38.219" transform="matrix(0 -.77474 .7754 0 527.447 277.828)" fill="none" stroke-width="2" stroke="#929292"/></g><path d="M528.996 217.543v-28.059h29.168v28.059zm0 0" fill="#d6d5d5"/><path d="M558.164 217.543v-28.059h29.164v28.059zm29.164 0v-28.059h29.164v28.059zm0 0" fill="#5e5e5e"/><g clip-path="url(#V)"><path d="M.998 39.615h38.219" transform="matrix(0 -.77474 .7754 0 527.447 219.094)" fill="none" stroke-width="2" stroke="#929292"/></g><g clip-path="url(#W)"><path d="M.998 77.227h38.219" transform="matrix(0 -.77474 .7754 0 527.447 219.094)" fill="none" stroke-width="2" stroke="#929292"/></g><g clip-path="url(#X)"><path d="M2.002 1v38.615" transform="matrix(0 -.77474 .7754 0 527.447 219.094)" fill="none" stroke-width="2" stroke="#929292"/></g><g clip-path="url(#Y)"><path d="M2.002 39.615v76.227" transform="matrix(0 -.77474 .7754 0 527.447 219.094)" fill="none" stroke-width="2" stroke="#929292"/></g><g clip-path="url(#Z)"><path d="M38.219 1v38.615" transform="matrix(0 -.77474 .7754 0 527.447 219.094)" fill="none" stroke-width="2" stroke="#929292"/></g><g clip-path="url(#aa)"><path d="M38.219 39.615v76.227" transform="matrix(0 -.77474 .7754 0 527.447 219.094)" fill="none" stroke-width="2" stroke="#929292"/></g><g clip-path="url(#ab)"><path d="M.998 1.998h38.219" transform="matrix(0 -.77474 .7754 0 527.447 219.094)" fill="none" stroke-width="2" stroke="#929292"/></g><g clip-path="url(#ac)"><path d="M.998 114.84h38.219" transform="matrix(0 -.77474 .7754 0 527.447 219.094)" fill="none" stroke-width="2" stroke="#929292"/></g><path d="M528.996 158.809V130.75h29.168v28.059zm0 0" fill="#fff"/><path d="M558.164 158.809V130.75h29.164v28.059zm0 0" fill="#929292"/><path d="M587.328 158.809V130.75h29.164v28.059zm0 0" fill="#fff"/><g clip-path="url(#ad)"><path d="M.998 39.615h38.219" transform="matrix(0 -.77474 .7754 0 527.447 160.36)" fill="none" stroke-width="2" stroke="#929292"/></g><g clip-path="url(#ae)"><path d="M.998 77.227h38.219" transform="matrix(0 -.77474 .7754 0 527.447 160.36)" fill="none" stroke-width="2" stroke="#929292"/></g><g clip-path="url(#af)"><path d="M2.002 1v38.615" transform="matrix(0 -.77474 .7754 0 527.447 160.36)" fill="none" stroke-width="2" stroke="#929292"/></g><path d="M2.002 39.615v37.612" transform="matrix(0 -.77474 .7754 0 527.447 160.36)" fill="none" stroke-width="2" stroke="#929292"/><g clip-path="url(#ag)"><path d="M2.002 77.227v38.615" transform="matrix(0 -.77474 .7754 0 527.447 160.36)" fill="none" stroke-width="2" stroke="#929292"/></g><g clip-path="url(#ah)"><path d="M38.219 1v38.615" transform="matrix(0 -.77474 .7754 0 527.447 160.36)" fill="none" stroke-width="2" stroke="#929292"/></g><path d="M38.219 39.615v37.612" transform="matrix(0 -.77474 .7754 0 527.447 160.36)" fill="none" stroke-width="2" stroke="#929292"/><g clip-path="url(#ai)"><path d="M38.219 77.227v38.615" transform="matrix(0 -.77474 .7754 0 527.447 160.36)" fill="none" stroke-width="2" stroke="#929292"/></g><g clip-path="url(#aj)"><path d="M.998 1.998h38.219" transform="matrix(0 -.77474 .7754 0 527.447 160.36)" fill="none" stroke-width="2" stroke="#929292"/></g><g clip-path="url(#ak)"><path d="M.998 114.84h38.219" transform="matrix(0 -.77474 .7754 0 527.447 160.36)" fill="none" stroke-width="2" stroke="#929292"/></g><path d="M528.996 100.074V72.016h29.168v28.058zm0 0" fill="#d6d5d5"/><path d="M558.164 100.074V72.016h29.164v28.058zm0 0" fill="#5e5e5e"/><path d="M587.328 100.074V72.016h29.164v28.058zm0 0" fill="#d6d5d5"/><g clip-path="url(#al)"><path d="M.998 39.615h38.219" transform="matrix(0 -.77474 .7754 0 527.447 101.625)" fill="none" stroke-width="2" stroke="#929292"/></g><g clip-path="url(#am)"><path d="M.998 77.227h38.219" transform="matrix(0 -.77474 .7754 0 527.447 101.625)" fill="none" stroke-width="2" stroke="#929292"/></g><g clip-path="url(#an)"><path d="M2.002 1v38.615" transform="matrix(0 -.77474 .7754 0 527.447 101.625)" fill="none" stroke-width="2" stroke="#929292"/></g><path d="M2.002 39.615v37.612" transform="matrix(0 -.77474 .7754 0 527.447 101.625)" fill="none" stroke-width="2" stroke="#929292"/><g clip-path="url(#ao)"><path d="M2.002 77.227v38.615" transform="matrix(0 -.77474 .7754 0 527.447 101.625)" fill="none" stroke-width="2" stroke="#929292"/></g><g clip-path="url(#ap)"><path d="M38.219 1v38.615" transform="matrix(0 -.77474 .7754 0 527.447 101.625)" fill="none" stroke-width="2" stroke="#929292"/></g><path d="M38.219 39.615v37.612" transform="matrix(0 -.77474 .7754 0 527.447 101.625)" fill="none" stroke-width="2" stroke="#929292"/><g clip-path="url(#aq)"><path d="M38.219 77.227v38.615" transform="matrix(0 -.77474 .7754 0 527.447 101.625)" fill="none" stroke-width="2" stroke="#929292"/></g><g clip-path="url(#ar)"><path d="M.998 1.998h38.219" transform="matrix(0 -.77474 .7754 0 527.447 101.625)" fill="none" stroke-width="2" stroke="#929292"/></g><g clip-path="url(#as)"><path d="M.998 114.84h38.219" transform="matrix(0 -.77474 .7754 0 527.447 101.625)" fill="none" stroke-width="2" stroke="#929292"/></g><g clip-path="url(#at)"><path d="M706.234 154.922h30.657v28.223h-30.657zm0 0" fill="#d6d5d5"/></g><g clip-path="url(#au)"><path d="M736.89 154.922h30.657v28.223H736.89zm0 0" fill="#5e5e5e"/></g><g clip-path="url(#av)"><path d="M41.536 1.353v37.72" transform="matrix(.7754 0 0 .77474 704.684 153.374)" fill="none" stroke-width="2" stroke="#929292"/></g><g clip-path="url(#aw)"><path d="M2 1.353v37.72" transform="matrix(.7754 0 0 .77474 704.684 153.374)" fill="none" stroke-width="2" stroke="#929292"/></g><g clip-path="url(#ax)"><path d="M81.072 1.353v37.72" transform="matrix(.7754 0 0 .77474 704.684 153.374)" fill="none" stroke-width="2" stroke="#929292"/></g><g clip-path="url(#ay)"><path d="M1.354 1.998h80.363" transform="matrix(.7754 0 0 .77474 704.684 153.374)" fill="none" stroke-width="2" stroke="#929292"/></g><g clip-path="url(#az)"><path d="M1.354 38.427h80.363" transform="matrix(.7754 0 0 .77474 704.684 153.374)" fill="none" stroke-width="2" stroke="#929292"/></g><path d="M705.46 266.516h30.653v28.222h-30.652zm0 0"/><path d="M736.113 266.516h30.657v28.222h-30.657zm0 0" fill="#fff"/><g clip-path="url(#aA)"><path d="M41.533 1.353v37.72" transform="matrix(.7754 0 0 .77474 703.909 264.967)" fill="none" stroke-width="2" stroke="#929292"/></g><g clip-path="url(#aB)"><path d="M2.002 1.353v37.72" transform="matrix(.7754 0 0 .77474 703.909 264.967)" fill="none" stroke-width="2" stroke="#929292"/></g><g clip-path="url(#aC)"><path d="M81.07 1.353v37.72" transform="matrix(.7754 0 0 .77474 703.909 264.967)" fill="none" stroke-width="2" stroke="#929292"/></g><g clip-path="url(#aD)"><path d="M1.357 1.999h80.357" transform="matrix(.7754 0 0 .77474 703.909 264.967)" fill="none" stroke-width="2" stroke="#929292"/></g><g clip-path="url(#aE)"><path d="M1.357 38.427h80.357" transform="matrix(.7754 0 0 .77474 703.909 264.967)" fill="none" stroke-width="2" stroke="#929292"/></g><path d="M.002.002h279.661v78.07H.003zm0 0" transform="matrix(0 .77474 -.7754 0 367.681 70.248)" fill="#acd373" stroke-width="3" stroke="#677d00"/><g fill="#677d00"><use xlink:href="#aF" x="331.003" y="109.056"/><use xlink:href="#aG" x="331.003" y="114.732"/><use xlink:href="#aH" x="331.003" y="120.731"/><use xlink:href="#aI" x="331.003" y="130.208"/><use xlink:href="#aJ" x="331.003" y="139.991"/><use xlink:href="#aK" x="331.003" y="148.837"/><use xlink:href="#aL" x="331.003" y="154.206"/><use xlink:href="#aG" x="331.003" y="164.314"/><use xlink:href="#aM" x="331.003" y="170.313"/><use xlink:href="#aN" x="331.003" y="185.142"/><use xlink:href="#aG" x="331.003" y="194.618"/><use xlink:href="#aO" x="331.003" y="200.618"/><use xlink:href="#aP" x="331.003" y="205.356"/><use xlink:href="#aO" x="331.003" y="215.77"/><use xlink:href="#aL" x="331.003" y="219.878"/><use xlink:href="#aQ" x="331.003" y="229.985"/><use xlink:href="#aR" x="331.003" y="239.462"/></g><path d="M-.001 0h280.664v78.07H-.001zm0 0" transform="matrix(0 .77474 -.7754 0 432.91 69.473)" fill="#acd373" stroke-width="3" stroke="#677d00"/><g fill="#677d00"><use xlink:href="#aF" x="396.003" y="108.056"/><use xlink:href="#aG" x="396.003" y="113.732"/><use xlink:href="#aH" x="396.003" y="119.731"/><use xlink:href="#aI" x="396.003" y="129.208"/><use xlink:href="#aJ" x="396.003" y="138.991"/><use xlink:href="#aK" x="396.003" y="147.837"/><use xlink:href="#aL" x="396.003" y="153.206"/><use xlink:href="#aG" x="396.003" y="163.314"/><use xlink:href="#aM" x="396.003" y="169.313"/><use xlink:href="#aN" x="396.003" y="184.142"/><use xlink:href="#aG" x="396.003" y="193.618"/><use xlink:href="#aO" x="396.003" y="199.618"/><use xlink:href="#aP" x="396.003" y="204.356"/><use xlink:href="#aO" x="396.003" y="214.77"/><use xlink:href="#aL" x="396.003" y="218.878"/><use xlink:href="#aQ" x="396.003" y="228.985"/><use xlink:href="#aR" x="396.003" y="238.462"/></g><path d="M-.001 0h280.664v78.07H-.001zm0 0" transform="matrix(0 .77474 -.7754 0 497.477 69.473)" fill="#acd373" stroke-width="3" stroke="#677d00"/><g fill="#677d00"><use xlink:href="#aF" x="461.003" y="108.056"/><use xlink:href="#aG" x="461.003" y="113.732"/><use xlink:href="#aH" x="461.003" y="119.731"/><use xlink:href="#aI" x="461.003" y="129.208"/><use xlink:href="#aJ" x="461.003" y="138.991"/><use xlink:href="#aK" x="461.003" y="147.837"/><use xlink:href="#aL" x="461.003" y="153.206"/><use xlink:href="#aG" x="461.003" y="163.314"/><use xlink:href="#aM" x="461.003" y="169.313"/><use xlink:href="#aN" x="461.003" y="184.142"/><use xlink:href="#aG" x="461.003" y="193.618"/><use xlink:href="#aO" x="461.003" y="199.618"/><use xlink:href="#aP" x="461.003" y="204.356"/><use xlink:href="#aO" x="461.003" y="214.77"/><use xlink:href="#aL" x="461.003" y="218.878"/><use xlink:href="#aQ" x="461.003" y="228.985"/><use xlink:href="#aR" x="461.003" y="238.462"/></g><use xlink:href="#aS" x="552.003" y="19.056"/><use xlink:href="#J" x="562.035" y="19.056"/><use xlink:href="#K" x="572.738" y="19.056"/><use xlink:href="#I" x="579.16" y="19.056"/><use xlink:href="#J" x="589.788" y="19.056"/><use xlink:href="#K" x="600.49" y="19.056"/><use xlink:href="#L" x="606.912" y="19.056"/><use xlink:href="#L" x="542.003" y="40.056"/><use xlink:href="#M" x="550.044" y="40.056"/><use xlink:href="#N" x="559.034" y="40.056"/><use xlink:href="#J" x="569.439" y="40.056"/><use xlink:href="#M" x="580.141" y="40.056"/><use xlink:href="#H" x="589.131" y="40.056"/><use xlink:href="#O" x="600.131" y="40.056"/><use xlink:href="#M" x="608.582" y="40.056"/><use xlink:href="#I" x="695.003" y="29.056"/><use xlink:href="#aT" x="705.635" y="29.056"/><use xlink:href="#M" x="713.259" y="29.056"/><use xlink:href="#aU" x="722.255" y="29.056"/><use xlink:href="#G" x="732.94" y="29.056"/><use xlink:href="#O" x="738.393" y="29.056"/><use xlink:href="#K" x="746.843" y="29.056"/><use xlink:href="#G" x="753.267" y="29.056"/><use xlink:href="#aS" x="758.72" y="29.056"/><g clip-path="url(#aV)"><use xlink:href="#H" x="768.752" y="29.056"/></g><path d="M.001.002h275.123" transform="matrix(0 .77474 -.7754 0 645.423 57.651)" fill="none" stroke-width="4" stroke="#000"/><path d="M638.91 269.25l6.512 13.016 6.515-13.016zm0 0"/><path d="M-.002.001h151.014v39.995H-.002zm0 0" transform="matrix(0 .77474 -.7754 0 659.38 117.118)" fill="#73a7d3" stroke-width="3" stroke="#306693"/><g fill="#306693"><use xlink:href="#aH" x="637.003" y="144.056"/><use xlink:href="#aW" x="637.003" y="153.533"/><use xlink:href="#aN" x="637.003" y="162.379"/><use xlink:href="#aG" x="637.003" y="171.855"/><use xlink:href="#aH" x="637.003" y="177.855"/><use xlink:href="#aX" x="637.003" y="187.331"/><use xlink:href="#aN" x="637.003" y="197.439"/></g><use xlink:href="#K" x="710.003" y="331.056"/><use xlink:href="#aY" x="716.427" y="331.056"/><use xlink:href="#aT" x="725.81" y="331.056"/><use xlink:href="#aZ" x="733.425" y="331.056"/><use xlink:href="#M" x="742.901" y="331.056"/><use xlink:href="#K" x="751.893" y="331.056"/><path d="M-.001 102.863L.714.001" transform="matrix(.7754 0 0 .77474 736.7 185.312)" fill="none" stroke-width="3" stroke-linecap="round" stroke-linejoin="round" stroke="#b13e26" stroke-dasharray=".003,9" stroke-dashoffset=".5"/><g fill="#b13e26"><use xlink:href="#ba" x="748.003" y="209.056"/><use xlink:href="#bb" x="748.003" y="214.376"/><use xlink:href="#bc" x="748.003" y="224.4"/><use xlink:href="#bc" x="748.003" y="232.434"/></g><use xlink:href="#bd" x="121.003" y="19.056"/><use xlink:href="#aS" x="134.724" y="19.056"/><use xlink:href="#aT" x="144.76" y="19.056"/><use xlink:href="#aU" x="152.377" y="19.056"/><use xlink:href="#L" x="163.064" y="19.056"/><use xlink:href="#L" x="167.554" y="19.056"/><use xlink:href="#M" x="96.003" y="40.056"/><use xlink:href="#be" x="104.999" y="40.056"/><use xlink:href="#bf" x="121.392" y="40.056"/><use xlink:href="#M" x="131.815" y="40.056"/><use xlink:href="#aU" x="140.811" y="40.056"/><use xlink:href="#aU" x="151.496" y="40.056"/><use xlink:href="#G" x="162.182" y="40.056"/><use xlink:href="#H" x="167.634" y="40.056"/><use xlink:href="#aZ" x="178.629" y="40.056"/><use xlink:href="#K" x="30.003" y="88.056" fill="#306693"/><g fill="#306693"><use xlink:href="#bg" x="36.427" y="88.056"/><use xlink:href="#G" x="47.258" y="88.056"/><use xlink:href="#L" x="52.71" y="88.056"/></g><use xlink:href="#L" x="60.751" y="88.056" fill="#306693"/><use xlink:href="#be" x="20.003" y="149.056" fill="#306693"/><use xlink:href="#aS" x="36.396" y="149.056" fill="#306693"/><use xlink:href="#bh" x="46.428" y="149.056" fill="#306693"/><g fill="#306693"><use xlink:href="#G" x="55.67" y="149.056"/><use xlink:href="#M" x="61.122" y="149.056"/></g><g fill="#306693"><use xlink:href="#G" x="39.003" y="209.056"/><use xlink:href="#L" x="44.456" y="209.056"/></g><g fill="#306693"><use xlink:href="#aZ" x="25.003" y="269.056"/><use xlink:href="#aT" x="34.481" y="269.056"/></g><g fill="#306693"><use xlink:href="#M" x="42.098" y="269.056"/><use xlink:href="#aY" x="51.092" y="269.056"/><use xlink:href="#K" x="60.476" y="269.056"/></g><path d="M93.79 278.05v-28.058h29.167v28.059zm0 0" fill="#d6d5d5"/><path d="M122.957 278.05v-28.058h29.164v28.059zm0 0" fill="#d6d5d5"/><path d="M152.121 278.05v-28.058h29.164v28.059zm0 0" fill="#fff"/><g clip-path="url(#bi)"><path d="M1.001 39.616h38.214" transform="matrix(0 -.77474 .7754 0 92.24 279.6)" fill="none" stroke-width="2" stroke="#929292"/></g><g clip-path="url(#bj)"><path d="M1.001 77.228h38.214" transform="matrix(0 -.77474 .7754 0 92.24 279.6)" fill="none" stroke-width="2" stroke="#929292"/></g><g clip-path="url(#bk)"><path d="M2 1.001v114.841" transform="matrix(0 -.77474 .7754 0 92.24 279.6)" fill="none" stroke-width="2" stroke="#929292"/></g><g clip-path="url(#bl)"><path d="M38.217 1.001v114.841" transform="matrix(0 -.77474 .7754 0 92.24 279.6)" fill="none" stroke-width="2" stroke="#929292"/></g><g clip-path="url(#bm)"><path d="M1.001 1.999h38.214" transform="matrix(0 -.77474 .7754 0 92.24 279.6)" fill="none" stroke-width="2" stroke="#929292"/></g><g clip-path="url(#bn)"><path d="M1.001 114.84h38.214" transform="matrix(0 -.77474 .7754 0 92.24 279.6)" fill="none" stroke-width="2" stroke="#929292"/></g><path d="M93.79 219.316v-28.058h29.167v28.058zm0 0" fill="#d6d5d5"/><path d="M122.957 219.316v-28.058h29.164v28.058zm29.164 0v-28.058h29.164v28.058zm0 0" fill="#5e5e5e"/><g clip-path="url(#bo)"><path d="M1.001 39.616h38.214" transform="matrix(0 -.77474 .7754 0 92.24 220.866)" fill="none" stroke-width="2" stroke="#929292"/></g><g clip-path="url(#bp)"><path d="M1.001 77.228h38.214" transform="matrix(0 -.77474 .7754 0 92.24 220.866)" fill="none" stroke-width="2" stroke="#929292"/></g><g clip-path="url(#bq)"><path d="M2 1.001v38.615" transform="matrix(0 -.77474 .7754 0 92.24 220.866)" fill="none" stroke-width="2" stroke="#929292"/></g><g clip-path="url(#br)"><path d="M2 39.616v76.226" transform="matrix(0 -.77474 .7754 0 92.24 220.866)" fill="none" stroke-width="2" stroke="#929292"/></g><g clip-path="url(#bs)"><path d="M38.217 1.001v38.615" transform="matrix(0 -.77474 .7754 0 92.24 220.866)" fill="none" stroke-width="2" stroke="#929292"/></g><g clip-path="url(#bt)"><path d="M38.217 39.616v76.226" transform="matrix(0 -.77474 .7754 0 92.24 220.866)" fill="none" stroke-width="2" stroke="#929292"/></g><g clip-path="url(#bu)"><path d="M1.001 1.999h38.214" transform="matrix(0 -.77474 .7754 0 92.24 220.866)" fill="none" stroke-width="2" stroke="#929292"/></g><g clip-path="url(#bv)"><path d="M1.001 114.84h38.214" transform="matrix(0 -.77474 .7754 0 92.24 220.866)" fill="none" stroke-width="2" stroke="#929292"/></g><path d="M93.79 160.582v-28.059h29.167v28.059zm0 0" fill="#fff"/><path d="M122.957 160.582v-28.059h29.164v28.059zm0 0" fill="#929292"/><path d="M152.121 160.582v-28.059h29.164v28.059zm0 0" fill="#fff"/><g clip-path="url(#bw)"><path d="M1.002 39.616h38.213" transform="matrix(0 -.77474 .7754 0 92.24 162.131)" fill="none" stroke-width="2" stroke="#929292"/></g><g clip-path="url(#bx)"><path d="M1.002 77.228h38.213" transform="matrix(0 -.77474 .7754 0 92.24 162.131)" fill="none" stroke-width="2" stroke="#929292"/></g><g clip-path="url(#by)"><path d="M2 1.001v38.615" transform="matrix(0 -.77474 .7754 0 92.24 162.131)" fill="none" stroke-width="2" stroke="#929292"/></g><path d="M2 39.616v37.612" transform="matrix(0 -.77474 .7754 0 92.24 162.131)" fill="none" stroke-width="2" stroke="#929292"/><g clip-path="url(#bz)"><path d="M2 77.228v38.614" transform="matrix(0 -.77474 .7754 0 92.24 162.131)" fill="none" stroke-width="2" stroke="#929292"/></g><g clip-path="url(#bA)"><path d="M38.217 1.001v38.615" transform="matrix(0 -.77474 .7754 0 92.24 162.131)" fill="none" stroke-width="2" stroke="#929292"/></g><path d="M38.217 39.616v37.612" transform="matrix(0 -.77474 .7754 0 92.24 162.131)" fill="none" stroke-width="2" stroke="#929292"/><g clip-path="url(#bB)"><path d="M38.217 77.228v38.614" transform="matrix(0 -.77474 .7754 0 92.24 162.131)" fill="none" stroke-width="2" stroke="#929292"/></g><g clip-path="url(#bC)"><path d="M1.002 1.999h38.213" transform="matrix(0 -.77474 .7754 0 92.24 162.131)" fill="none" stroke-width="2" stroke="#929292"/></g><g clip-path="url(#bD)"><path d="M1.002 114.84h38.213" transform="matrix(0 -.77474 .7754 0 92.24 162.131)" fill="none" stroke-width="2" stroke="#929292"/></g><path d="M93.79 101.848V73.789h29.167v28.059zm0 0" fill="#d6d5d5"/><path d="M122.957 101.848V73.789h29.164v28.059zm0 0" fill="#5e5e5e"/><path d="M152.121 101.848V73.789h29.164v28.059zm0 0" fill="#d6d5d5"/><g clip-path="url(#bE)"><path d="M1.002 39.616h38.213" transform="matrix(0 -.77474 .7754 0 92.24 103.397)" fill="none" stroke-width="2" stroke="#929292"/></g><g clip-path="url(#bF)"><path d="M1.002 77.228h38.213" transform="matrix(0 -.77474 .7754 0 92.24 103.397)" fill="none" stroke-width="2" stroke="#929292"/></g><g clip-path="url(#bG)"><path d="M2 1.001v38.615" transform="matrix(0 -.77474 .7754 0 92.24 103.397)" fill="none" stroke-width="2" stroke="#929292"/></g><path d="M2 39.616v37.612" transform="matrix(0 -.77474 .7754 0 92.24 103.397)" fill="none" stroke-width="2" stroke="#929292"/><g clip-path="url(#bH)"><path d="M2 77.228v38.614" transform="matrix(0 -.77474 .7754 0 92.24 103.397)" fill="none" stroke-width="2" stroke="#929292"/></g><g clip-path="url(#bI)"><path d="M38.217 1.001v38.615" transform="matrix(0 -.77474 .7754 0 92.24 103.397)" fill="none" stroke-width="2" stroke="#929292"/></g><path d="M38.217 39.616v37.612" transform="matrix(0 -.77474 .7754 0 92.24 103.397)" fill="none" stroke-width="2" stroke="#929292"/><g clip-path="url(#bJ)"><path d="M38.217 77.228v38.614" transform="matrix(0 -.77474 .7754 0 92.24 103.397)" fill="none" stroke-width="2" stroke="#929292"/></g><g clip-path="url(#bK)"><path d="M1.002 1.999h38.213" transform="matrix(0 -.77474 .7754 0 92.24 103.397)" fill="none" stroke-width="2" stroke="#929292"/></g><g clip-path="url(#bL)"><path d="M1.002 114.84h38.213" transform="matrix(0 -.77474 .7754 0 92.24 103.397)" fill="none" stroke-width="2" stroke="#929292"/></g><use xlink:href="#I" x="214.003" y="19.056"/><use xlink:href="#aS" x="224.635" y="19.056"/><use xlink:href="#L" x="234.667" y="19.056"/><use xlink:href="#G" x="242.708" y="19.056"/><use xlink:href="#K" x="248.161" y="19.056"/><use xlink:href="#G" x="254.584" y="19.056"/><use xlink:href="#aS" x="260.037" y="19.056"/><use xlink:href="#H" x="270.069" y="19.056"/><use xlink:href="#L" x="281.064" y="19.056"/><use xlink:href="#L" x="285.552" y="19.056"/><use xlink:href="#M" x="202.003" y="40.056"/><use xlink:href="#be" x="210.999" y="40.056"/><use xlink:href="#bf" x="227.392" y="40.056"/><use xlink:href="#M" x="237.815" y="40.056"/><use xlink:href="#aU" x="246.811" y="40.056"/><use xlink:href="#aU" x="257.496" y="40.056"/><use xlink:href="#G" x="268.182" y="40.056"/><use xlink:href="#H" x="273.634" y="40.056"/><use xlink:href="#aZ" x="284.629" y="40.056"/><use xlink:href="#bM" x="187.003" y="92.056"/><use xlink:href="#bM" x="186.003" y="153.056"/><use xlink:href="#bM" x="186.003" y="212.056"/><use xlink:href="#bM" x="186.003" y="271.056"/><use xlink:href="#bN" x="748.003" y="120.056"/><use xlink:href="#bb" x="748.003" y="130.679"/><use xlink:href="#bc" x="748.003" y="140.706"/><use xlink:href="#bO" x="717.003" y="118.056"/><use xlink:href="#bP" x="717.003" y="129.041"/><use xlink:href="#bQ" x="717.003" y="138.037"/></svg>